<svg xmlns="http://www.w3.org/2000/svg" xmlns:xlink="http://www.w3.org/1999/xlink" version="1.1" id="Layer_1" x="0px" y="0px" viewBox="40.0 -80.0 800.0 1080.0" enable-background="new 0 0 800 800" xml:space="preserve" height="100px" width="100px">
<g>
	<circle cx="460.5" cy="242.1" r="46.8"/>
	<path d="M606.2,443.4c-13-2.2-65-11.3-67.9-12.2c-3.3-1.1,0,0-1.1-1.7c-1.1-1.7-46.5-97.4-50.9-102.4c-4.4-5-16.6-17.7-33.8-23.3   c-17.2-5.5-34.3,3.3-34.3,3.3s-85.2,48.7-90.8,51.5c-5.5,2.8-10.5,12.7-10.5,12.7l-39.8,74.8c-3.3,4.1-5.2,9.3-5.2,14.9   c0,13.3,10.8,24.1,24.1,24.1c11.4,0,20.9-7.9,23.4-18.5l37.1-70.2l23.3-13c-1.7,5-23,108.8-23,108.8l-21.6,122.9l-75.6,91.1   c-5.4,5.1-8.9,12.3-8.9,20.3c0,15.3,12.4,27.8,27.8,27.8c2.5,0,4.9-0.3,7.2-1c5.2-0.2,10.1-3,12.9-7.7c0.9-1,1.8-2,2.6-3.1   c13.9-16.3,83.6-98.2,90.3-106.2c7.5-8.9,9.4-13.3,10.5-19.1c1.1-5.8,13.6-80.8,13.6-80.8l71.4,71.4v125.9h0.1   c1.4,14.1,13.3,25.1,27.8,25.1c14.5,0,26.4-11,27.8-25.1h0.1c0,0,0-0.9,0-2.4c0-0.1,0-0.3,0-0.4c0-0.2,0-0.4,0-0.5   c-0.1-19.2-0.7-114.7,0-136.4c0.8-24.1-7.8-29.3-9.7-31.5c-1.9-2.2-68.6-73.1-68.6-73.1l14.7-71.1c0,0,19.1,37.4,21,41.5   c1.9,4.1,8,11.6,14.4,13c6.4,1.4,85.8,17.4,85.8,17.4l0-0.2c1.2,0.2,2.3,0.4,3.6,0.4c13.1,0,23.7-10.6,23.7-23.7   C627.6,454.5,618.2,444.6,606.2,443.4z"/>
	<path d="M73.8,426.2c8.8,0,15.9-7,16-15.8c0.1-8.5,0.5-17,1.2-25.4c0.8-8.8-5.8-16.6-14.6-17.4c-8.9-0.8-16.6,5.8-17.4,14.6   c-0.8,9.2-1.3,18.5-1.4,27.8c-0.1,8.8,7,16.1,15.8,16.2C73.7,426.2,73.8,426.2,73.8,426.2z"/>
	<path d="M103.8,510.8c-2.4-8.1-4.5-16.4-6.3-24.6c-1.9-8.6-10.4-14.1-19.1-12.3c-8.7,1.9-14.1,10.4-12.3,19.1c2,9,4.3,18.1,6.9,27   c2.1,7,8.4,11.5,15.4,11.5c1.5,0,3.1-0.2,4.6-0.7C101.5,528.2,106.3,519.3,103.8,510.8z"/>
	<path d="M409.8,78.2c0.3,0,0.5,0,0.8,0c5.1-0.2,10.3-0.4,15.5-0.4c3.3,0,6.7,0,10,0.1c9.1,0.3,16.2-6.7,16.5-15.6   c0.3-8.8-6.7-16.2-15.6-16.5c-3.5-0.1-7-0.2-10.5-0.2c-5.8,0-11.6,0.1-17.4,0.4c-8.8,0.4-15.7,7.9-15.3,16.8   C394.2,71.5,401.3,78.2,409.8,78.2z"/>
	<path d="M511.5,88.7c8.2,2.1,16.4,4.6,24.3,7.3c1.7,0.6,3.5,0.9,5.2,0.9c6.7,0,12.9-4.2,15.2-10.8c2.9-8.4-1.6-17.5-9.9-20.4   c-8.7-3-17.7-5.7-26.7-8.1c-8.6-2.2-17.3,2.9-19.6,11.5C497.8,77.7,502.9,86.5,511.5,88.7z"/>
	<path d="M305.7,99.1c1.8,0,3.7-0.3,5.5-1c7.9-2.9,16-5.5,24.2-7.8c8.5-2.4,13.5-11.2,11.1-19.8c-2.4-8.5-11.2-13.5-19.8-11.1   c-8.9,2.5-17.8,5.4-26.5,8.5c-8.3,3-12.6,12.2-9.6,20.5C293,95,299.2,99.1,305.7,99.1z"/>
	<path d="M86,320.6c1.6,0.5,3.3,0.8,5,0.8c6.7,0,13-4.3,15.2-11.1c2.6-8,5.6-16.1,8.8-23.9c3.4-8.2-0.5-17.5-8.7-20.9   c-8.2-3.4-17.5,0.6-20.9,8.7c-3.5,8.6-6.8,17.4-9.6,26.2C73,308.8,77.6,317.9,86,320.6z"/>
	<path d="M133.7,580.8c-4.4-7.7-14.2-10.4-21.9-6c-7.7,4.4-10.4,14.2-6,21.9c4.6,8,9.5,16,14.7,23.7c3.1,4.6,8.2,7.1,13.3,7.1   c3.1,0,6.2-0.9,9-2.7c7.3-4.9,9.3-14.9,4.3-22.3C142.4,595.4,137.9,588.1,133.7,580.8z"/>
	<path d="M644.6,117.3c-7.5-5.5-15.2-10.8-23.1-15.7c-7.5-4.7-17.4-2.4-22.1,5.1c-4.7,7.5-2.4,17.4,5.1,22.1   c7.2,4.5,14.2,9.3,21,14.3c2.9,2.1,6.2,3.1,9.5,3.1c4.9,0,9.8-2.3,12.9-6.5C653.3,132.5,651.7,122.5,644.6,117.3z"/>
	<path d="M225.6,105.3c-7.7,5-15.4,10.4-22.8,16.1c-7,5.4-8.4,15.4-3,22.5c3.1,4.1,7.9,6.3,12.7,6.3c3.4,0,6.8-1.1,9.7-3.3   c6.7-5.1,13.7-10.1,20.8-14.7c7.4-4.8,9.5-14.8,4.7-22.2C242.9,102.5,233,100.5,225.6,105.3z"/>
	<path d="M215.8,677c-6.6-5.3-13.1-10.9-19.2-16.7c-6.5-6-16.6-5.7-22.7,0.8c-6,6.5-5.7,16.6,0.8,22.7c6.7,6.3,13.8,12.4,21.1,18.3   c3,2.4,6.5,3.5,10,3.5c4.7,0,9.3-2,12.5-6C223.8,692.7,222.7,682.6,215.8,677z"/>
	<path d="M165.2,177c-6.8-5.7-16.9-4.7-22.6,2.1c-5.9,7.1-11.6,14.6-17,22.1c-5.1,7.2-3.4,17.2,3.8,22.4c2.8,2,6.1,3,9.3,3   c5,0,9.9-2.3,13.1-6.7c4.9-6.9,10.1-13.7,15.5-20.2C173,192.7,172.1,182.6,165.2,177z"/>
	<circle cx="702.2" cy="194.7" r="47.4"/>
</g>
<text x="0.0" y="940.0" font-size="40.0" font-weight="bold" font-family="Helvetica Neue, Helvetica, Arial-Unicode, Arial, Sans-serif" fill="#000000">Created by Bj&#246;rn Andersson</text><text x="0.0" y="980.0" font-size="40.0" font-weight="bold" font-family="Helvetica Neue, Helvetica, Arial-Unicode, Arial, Sans-serif" fill="#000000">from the Noun Project</text></svg>