<svg xmlns="http://www.w3.org/2000/svg" xmlns:xlink="http://www.w3.org/1999/xlink" version="1.1" id="Layer_1" x="0px" y="0px" width="100px" height="100px" viewBox="5.0 -10.0 100.0 135.0" enable-background="new 0 0 100 100" xml:space="preserve">
<g>
	<g>
		<path d="M56.509,72.914c-0.177,0-0.366-0.016-0.556-0.032c-0.212-0.019-0.4-0.039-0.57-0.026    c-0.246,0.025-0.516-0.183-0.537-0.459c-0.022-0.274,0.184-0.516,0.459-0.537c0.219-0.018,0.468,0.002,0.719,0.024    c0.22,0.021,0.419,0.041,0.592,0.026c0.131-0.01,0.186-0.041,0.206-0.058c0.015-0.013,0.059-0.061,0.094-0.192    c0.044-0.167,0.062-0.367,0.081-0.566c0.026-0.277,0.052-0.52,0.106-0.728c0.09-0.312,0.231-0.547,0.423-0.706    c0.198-0.164,0.456-0.26,0.769-0.286c0.213-0.018,0.459,0.001,0.705,0.024c0.235,0.021,0.429,0.041,0.604,0.028    c0.139-0.012,0.192-0.045,0.209-0.059s0.059-0.061,0.1-0.202c0.039-0.155,0.058-0.355,0.076-0.557    c0.024-0.255,0.051-0.508,0.105-0.724c0.086-0.312,0.228-0.547,0.424-0.711c0.209-0.177,0.527-0.15,0.704,0.063    c0.177,0.212,0.148,0.526-0.063,0.704c-0.021,0.018-0.062,0.066-0.099,0.199c-0.04,0.159-0.057,0.359-0.075,0.562    c-0.024,0.256-0.053,0.511-0.107,0.724c-0.09,0.318-0.228,0.546-0.424,0.709c-0.198,0.166-0.458,0.263-0.771,0.287    c-0.226,0.019-0.483-0.001-0.738-0.025c-0.221-0.021-0.403-0.041-0.568-0.027c-0.14,0.013-0.194,0.045-0.21,0.059    c-0.025,0.021-0.064,0.086-0.099,0.203c-0.039,0.148-0.054,0.334-0.071,0.523c-0.027,0.288-0.056,0.545-0.113,0.762    c-0.08,0.301-0.222,0.536-0.419,0.703c-0.202,0.167-0.461,0.263-0.771,0.287C56.633,72.912,56.571,72.914,56.509,72.914z"/>
	</g>
	<g>
		<path d="M44.953,60.99c-0.287,0-0.571-0.123-0.77-0.361L33.782,48.108c-0.274-0.33-0.308-0.798-0.082-1.164l4.141-6.719    c0.169-0.274,0.46-0.451,0.781-0.473c0.315-0.022,0.633,0.111,0.839,0.359l11.123,13.393c0.354,0.425,0.295,1.055-0.13,1.408    s-1.055,0.295-1.408-0.131L38.812,42.46l-3.033,4.922l9.942,11.969c0.354,0.425,0.295,1.055-0.13,1.408    C45.405,60.915,45.179,60.99,44.953,60.99z"/>
	</g>
	<g>
		<path d="M60.792,80.062c-0.287,0-0.572-0.123-0.771-0.361L49.539,67.078c-0.353-0.425-0.295-1.055,0.131-1.408    c0.424-0.354,1.056-0.294,1.407,0.131l9.845,11.854l4.215-3.5L54.523,61.377c-0.353-0.425-0.294-1.055,0.131-1.408    c0.424-0.354,1.055-0.294,1.408,0.131l11.252,13.546c0.169,0.204,0.251,0.467,0.227,0.73c-0.024,0.265-0.153,0.508-0.357,0.678    l-5.754,4.778C61.243,79.987,61.017,80.062,60.792,80.062z"/>
	</g>
	<g>
		<rect x="20.162" y="27.824" transform="matrix(-0.7693 0.6389 -0.6389 -0.7693 60.6847 35.6736)" width="7.479" height="1.942"/>
		<path d="M21.646,32.931c-0.031,0-0.062-0.001-0.093-0.004c-0.264-0.024-0.507-0.153-0.677-0.356l-1.241-1.494    c-0.169-0.204-0.251-0.467-0.227-0.731s0.153-0.507,0.356-0.677l5.753-4.778c0.205-0.17,0.468-0.254,0.731-0.227    c0.265,0.024,0.508,0.153,0.678,0.357l1.24,1.494c0.353,0.425,0.294,1.055-0.131,1.408L22.284,32.7    C22.104,32.85,21.878,32.931,21.646,32.931z"/>
	</g>
	<g>
		<path d="M24.69,57.051c-0.159,0-0.32-0.038-0.47-0.117c-0.173-0.093-4.277-2.311-8.188-7.017    c-3.361-4.049-5.296-9.069-5.376-9.281c-0.152-0.399-0.033-0.852,0.296-1.125l23.289-19.342c0.425-0.352,1.055-0.293,1.407,0.13    l8.475,10.203c0.354,0.425,0.295,1.056-0.13,1.408l-6.613,5.493L25.542,56.576C25.354,56.881,25.026,57.051,24.69,57.051z     M12.796,40.579c0.627,1.463,2.315,5.096,4.776,8.06c2.666,3.209,5.453,5.196,6.786,6.047l11.406-18.473    c0.058-0.092,0.129-0.175,0.212-0.244l5.971-4.959l-7.197-8.665L12.796,40.579z"/>
	</g>
	<g>
		<path d="M25.357,50.189c-0.112,0-0.226-0.038-0.318-0.115c-1.551-1.287-2.979-2.712-4.242-4.235c-1.8-2.166-3.19-4.648-4.039-6.35    c-0.124-0.247-0.023-0.547,0.224-0.67c0.248-0.122,0.549-0.023,0.671,0.224c0.825,1.654,2.175,4.065,3.914,6.158    c1.225,1.476,2.608,2.857,4.111,4.104c0.212,0.176,0.241,0.492,0.065,0.704C25.644,50.128,25.502,50.189,25.357,50.189z"/>
	</g>
	<g>
		<path d="M39.209,80.062c-0.232,0-0.459-0.081-0.64-0.23l-5.753-4.778c-0.425-0.354-0.482-0.983-0.13-1.408l27.853-33.535    c0.207-0.248,0.517-0.377,0.84-0.358c0.321,0.022,0.612,0.199,0.781,0.473l4.141,6.719c0.225,0.365,0.191,0.833-0.082,1.164    L39.978,79.701c-0.169,0.204-0.412,0.333-0.677,0.357C39.271,80.062,39.239,80.062,39.209,80.062z M34.864,74.154l4.214,3.5    l25.144-30.272l-3.034-4.922L34.864,74.154z"/>
	</g>
	<g>
		<rect x="72.361" y="27.824" transform="matrix(0.7692 0.639 -0.639 0.7692 35.9631 -41.9822)" width="7.478" height="1.942"/>
		<path d="M78.355,32.931c-0.232,0-0.459-0.081-0.639-0.231l-5.752-4.778c-0.425-0.353-0.483-0.983-0.131-1.408l1.24-1.494    c0.17-0.204,0.413-0.333,0.678-0.357c0.264-0.025,0.527,0.058,0.73,0.227l5.752,4.778c0.425,0.353,0.483,0.983,0.131,1.408    l-1.24,1.494c-0.17,0.204-0.413,0.333-0.678,0.357C78.417,32.929,78.386,32.931,78.355,32.931z"/>
	</g>
	<g>
		<path d="M75.31,57.051c-0.337,0-0.664-0.17-0.852-0.475L62.62,37.403l-6.614-5.493c-0.204-0.17-0.333-0.413-0.357-0.677    s0.058-0.527,0.227-0.731l8.475-10.203c0.354-0.424,0.983-0.482,1.408-0.13L89.047,39.51c0.329,0.273,0.448,0.725,0.296,1.125    c-0.081,0.212-2.014,5.232-5.376,9.281c-3.909,4.707-8.015,6.925-8.188,7.018C75.63,57.013,75.469,57.051,75.31,57.051z     M58.053,31.01l5.971,4.958c0.084,0.069,0.155,0.152,0.212,0.244l11.405,18.472c1.336-0.854,4.132-2.849,6.787-6.046    c2.467-2.971,4.151-6.599,4.776-8.06L65.249,22.346L58.053,31.01z"/>
	</g>
	<g>
		<path d="M74.643,50.189c-0.144,0-0.286-0.062-0.385-0.181c-0.177-0.212-0.147-0.527,0.065-0.704    c1.504-1.249,2.887-2.63,4.11-4.104c1.737-2.089,3.087-4.502,3.914-6.158c0.124-0.247,0.422-0.348,0.671-0.224    c0.247,0.123,0.347,0.423,0.224,0.67c-0.85,1.703-2.241,4.188-4.039,6.351c-1.263,1.521-2.69,2.947-4.241,4.235    C74.869,50.152,74.756,50.189,74.643,50.189z"/>
	</g>
	<g>
		<path d="M43.49,72.914c-0.062,0-0.121-0.002-0.179-0.006c-0.313-0.025-0.571-0.121-0.771-0.286c-0.198-0.166-0.34-0.401-0.422-0.7    c-0.059-0.222-0.087-0.479-0.111-0.734c-0.019-0.201-0.033-0.398-0.077-0.567c-0.03-0.105-0.069-0.17-0.095-0.19    c-0.018-0.015-0.071-0.048-0.213-0.06c-0.16-0.014-0.344,0.007-0.53,0.023c-0.293,0.027-0.551,0.048-0.774,0.029    c-0.313-0.024-0.572-0.121-0.771-0.287c-0.193-0.16-0.336-0.396-0.42-0.698c-0.059-0.223-0.088-0.479-0.11-0.736    c-0.019-0.199-0.035-0.398-0.079-0.568c-0.024-0.089-0.061-0.161-0.097-0.191c-0.211-0.179-0.238-0.494-0.061-0.705    c0.178-0.21,0.493-0.236,0.705-0.061c0.194,0.165,0.335,0.399,0.418,0.698c0.059,0.226,0.085,0.479,0.109,0.735    c0.018,0.201,0.036,0.4,0.079,0.566c0.037,0.131,0.078,0.178,0.095,0.19c0.037,0.031,0.113,0.053,0.21,0.061    c0.172,0.012,0.369-0.007,0.567-0.025c0.284-0.025,0.526-0.046,0.74-0.027c0.314,0.026,0.572,0.122,0.769,0.285    c0.194,0.16,0.336,0.396,0.422,0.697c0.061,0.228,0.086,0.481,0.109,0.739c0.019,0.197,0.036,0.397,0.081,0.567    c0.035,0.129,0.078,0.176,0.096,0.19c0.02,0.016,0.074,0.047,0.207,0.058c0.169,0.008,0.37-0.008,0.569-0.025    c0.273-0.023,0.523-0.045,0.739-0.026c0.275,0.021,0.48,0.262,0.459,0.537s-0.265,0.497-0.537,0.459    c-0.167-0.012-0.356,0.007-0.55,0.024C43.862,72.898,43.668,72.914,43.49,72.914z"/>
	</g>
</g>
<text x="0.0" y="117.5" font-size="5.0" font-weight="bold" font-family="Helvetica Neue, Helvetica, Arial-Unicode, Arial, Sans-serif" fill="#000000">Created by Mete Erayd&#305;n</text><text x="0.0" y="122.5" font-size="5.0" font-weight="bold" font-family="Helvetica Neue, Helvetica, Arial-Unicode, Arial, Sans-serif" fill="#000000">from the Noun Project</text></svg>