<svg xmlns="http://www.w3.org/2000/svg" xmlns:xlink="http://www.w3.org/1999/xlink" version="1.1" id="Layer_1" x="0px" y="0px" width="90px" height="90px" viewBox="4.5 -9.0 90.0 121.5" enable-background="new 0 0 90 90" xml:space="preserve">
<path d="M76.819,13.179C68.32,4.681,57.02,0,45,0C32.98,0,21.68,4.681,13.18,13.179c-17.545,17.547-17.545,46.095,0,63.641  C21.68,85.318,32.98,90,45,90c12.02,0,23.32-4.682,31.819-13.181C94.365,59.273,94.365,30.726,76.819,13.179z M88.032,40.082  l-3.031-3.252L74.649,18.227l-1.697-6.341c0.924,0.783,1.823,1.605,2.689,2.473C82.838,21.556,86.968,30.676,88.032,40.082z   M76.468,48.646l-16.229-2.302L52.75,31.687l7.191-15.141l13.06,2.144l9.457,16.998L76.468,48.646z M21.617,22.796L34.09,35.27  l-2.376,15.204l-15.815,7.799l-9.594-9.334L9.601,28.9L21.617,22.796z M22.835,21.656l6.506-12.12L48.34,6.109l10.107,9.699  l-7.225,15.208l-16.469,2.559L22.835,21.656z M32.356,52.017l14.195,7.261l2.238,17.207l-12.016,6.347l-17.59-9.462l-2.246-13.75  L32.356,52.017z M48.251,59.426l11.471-11.471l16.627,2.357l1.988,13.521L64.005,78.312l-13.591-2.254L48.251,59.426z M53.588,2.513  l-3.898,1.659l-21.081,4l-0.097,0.053L23.49,7.363C29.967,3.646,37.332,1.666,45,1.666C47.918,1.666,50.79,1.953,53.588,2.513z   M7.695,22.943l0.063,6.887L4.514,49.558L2.603,53.88C0.433,43.444,2.128,32.359,7.695,22.943z M12.707,73.893l5.242,0.57  l-0.057,0.104l19.707,10.501l0.064,0.014l3.26,3.061c-10.036-0.93-19.349-5.285-26.564-12.501  C13.788,75.07,13.238,74.486,12.707,73.893z M75.642,75.642c-4.126,4.124-8.937,7.314-14.175,9.464l2.884-4.774l15.498-15.759  l4.121-2.209l0.959-0.468C82.833,66.583,79.482,71.8,75.642,75.642z"/>
<text x="0.0" y="105.75" font-size="4.5" font-weight="bold" font-family="Helvetica Neue, Helvetica, Arial-Unicode, Arial, Sans-serif" fill="#000000">Created by fcFrankChung</text><text x="0.0" y="110.25" font-size="4.5" font-weight="bold" font-family="Helvetica Neue, Helvetica, Arial-Unicode, Arial, Sans-serif" fill="#000000">from the Noun Project</text></svg>